<?xml version="1.0" encoding="UTF-8"?>
<!DOCTYPE svg PUBLIC "-//W3C//DTD SVG 1.1//EN" "http://www.w3.org/Graphics/SVG/1.1/DTD/svg11.dtd">
<!-- Creator: CorelDRAW X5 -->
<svg xmlns="http://www.w3.org/2000/svg" xml:space="preserve" style="shape-rendering:geometricPrecision; text-rendering:geometricPrecision; image-rendering:optimizeQuality; fill-rule:evenodd; clip-rule:evenodd"
viewBox="0 0 156 156"
 xmlns:xlink="http://www.w3.org/1999/xlink">
 <defs>
  <style type="text/css">
   <![CDATA[
    .fil1 {fill:#2020FF}
    .fil0 {fill:gray;fill-rule:nonzero}
   ]]>
  </style>
 </defs>
 <g id="Layer_x0020_1">
  <metadata id="CorelCorpID_0Corel-Layer"/>
  <g>
   <path class="fil0" d="M153 5l-151 0 0 -5 151 0 3 3 -3 3zm0 -5l3 0 0 3 -3 -3zm-3 153l0 -151 5 0 0 151 -3 3 -3 -3zm5 0l0 3 -3 0 3 -3zm-153 -3l151 0 0 5 -151 0 -3 -3 3 -3zm0 5l-3 0 0 -3 3 3zm3 -153l0 151 -5 0 0 -151 3 -3 3 3zm-5 0l0 -3 3 0 -3 3z"/>
   <polygon id="1" class="fil1" points="3,3 153,3 153,153 3,153 "/>
  </g>
  <path class="fil0" d="M48 119l-4 -2 -9 9 2 4c1,2 1,3 1,3 0,1 0,1 -1,2 -1,1 -1,1 -2,1 -1,0 -2,0 -2,-1 0,0 -1,-1 -1,-1 0,0 -1,-1 -1,-2l-9 -21c0,-1 -1,-1 -1,-2 0,-1 -1,-2 -1,-2 0,-1 0,-1 0,-2 0,-1 1,-1 1,-2 1,-1 1,-1 2,-1 1,0 1,0 2,0 1,0 1,0 2,1 1,0 1,1 2,1l21 9c2,1 3,1 3,2 1,1 1,1 1,2 0,1 0,2 -1,2 0,0 -1,1 -1,1 0,0 -1,0 -1,0 0,0 -1,0 -2,0 -1,0 -1,0 -2,-1zm-16 3l7 -7 -13 -6 6 13zm16 -27l1 1c0,-2 0,-3 0,-5 0,-1 1,-3 2,-4 1,-1 2,-2 4,-2 1,0 3,0 4,0 1,0 2,1 2,1 1,1 1,1 2,2l8 8c1,1 1,2 1,3 0,1 0,2 -1,2 -1,1 -1,1 -2,1 -1,0 -2,0 -3,-1l-7 -7c-1,-1 -3,-2 -4,-3 -1,0 -2,0 -3,1 -1,1 -1,2 -1,3 0,1 0,2 1,3 0,1 2,2 3,4l5 5c1,1 1,2 1,3 0,1 0,2 -1,2 -1,1 -1,1 -2,1 -1,0 -2,0 -3,-1l-12 -12c-1,-1 -1,-2 -1,-2 0,-1 0,-1 1,-2 0,0 1,-1 1,-1 0,0 1,0 2,0 1,0 1,1 2,1zm20 -20l12 12c1,1 1,2 1,3 0,1 0,2 -1,2 -1,1 -1,1 -2,1 -1,0 -2,-1 -3,-1l-12 -12c-1,-1 -1,-2 -1,-3 0,-1 0,-2 1,-2 1,-1 1,-1 2,-1 1,0 2,0 2,1zm-7 -2c-1,1 -1,1 -2,1 -1,0 -2,0 -2,-1 -1,-1 -1,-1 -1,-2 0,-1 0,-2 1,-2 1,-1 1,-1 2,-1 1,0 2,0 2,1 1,1 1,1 1,2 0,1 0,1 -1,2zm33 -12c1,1 2,3 3,4 1,1 1,3 1,5 0,2 0,3 -1,4 -1,1 -2,3 -3,4 -1,1 -3,2 -4,3 -1,1 -3,1 -4,1 -2,0 -3,0 -4,-1 -1,-1 -3,-2 -4,-3 -1,-1 -2,-3 -3,-4 -1,-1 -1,-3 -1,-4 0,-1 0,-3 1,-4 1,-1 2,-3 3,-4 1,-1 3,-2 4,-3 1,-1 3,-1 4,-1 2,0 3,0 4,1 1,1 3,2 4,3zm-4 4c-2,-2 -3,-3 -5,-3 -2,0 -3,0 -5,2 -1,1 -1,2 -2,3 0,1 0,2 0,3 1,1 1,2 2,3 1,1 2,2 3,2 1,0 2,1 3,0 1,0 2,-1 3,-2 1,-1 2,-3 2,-5 0,-2 -1,-3 -3,-5zm5 -18l1 1c0,-2 0,-3 0,-5 0,-1 1,-3 2,-4 1,-1 2,-2 4,-2 1,0 3,0 4,0 1,0 2,1 2,1 1,1 1,1 2,2l8 8c1,1 1,2 1,3 0,1 0,2 -1,2 -1,1 -1,1 -2,1 -1,0 -2,0 -3,-1l-7 -7c-1,-1 -3,-2 -4,-3 -1,0 -2,0 -3,1 -1,1 -1,2 -1,3 0,1 0,2 1,3 0,1 2,2 3,4l5 5c1,1 1,2 1,3 0,1 0,2 -1,2 -1,1 -1,1 -2,1 -1,0 -2,0 -3,-1l-12 -12c-1,-1 -1,-2 -1,-2 0,-1 0,-1 1,-2 0,0 1,-1 1,-1 0,0 1,0 2,0 1,0 1,1 2,1zm39 -20c1,1 2,2 2,4 0,1 0,3 -1,4 -1,2 -2,3 -3,5 -2,2 -3,3 -5,3 -2,1 -3,1 -4,1 -1,0 -2,-1 -3,-1 0,0 -1,-1 -1,-2 0,-1 0,-1 1,-2 0,0 1,-1 1,-1 0,0 1,0 2,0 1,0 2,0 3,0 1,0 2,-1 3,-2 1,-1 1,-2 2,-3 0,-1 0,-2 0,-2 -1,-1 -2,-1 -3,-1 -1,0 -2,1 -4,2 -2,1 -3,2 -5,2 -1,1 -3,1 -4,1 -1,0 -2,-1 -3,-2 -1,-1 -1,-2 -2,-3 0,-1 0,-3 0,-4 1,-1 2,-3 3,-4 1,-1 2,-2 3,-3 1,-1 2,-1 3,-1 1,0 2,0 3,0 1,0 1,0 2,1 0,0 1,1 1,2 0,1 0,1 -1,2 0,0 -1,1 -1,1 -1,0 -1,0 -2,0 -1,0 -1,0 -2,0 -1,0 -1,1 -2,1 -1,1 -1,2 -1,2 0,1 0,2 0,2 0,0 1,1 2,1 1,0 1,0 2,-1 1,0 2,-1 3,-2 2,-1 3,-2 4,-2 1,0 2,0 4,0 1,0 2,1 3,1z"/>
 </g>
</svg>
